<svg xmlns="http://www.w3.org/2000/svg" width="37" height="37" viewBox="0 0 37 37">
  <g id="headphones" transform="translate(-1742 -33)">
    <rect id="사각형_7288" data-name="사각형 7288" width="37" height="37" transform="translate(1742 33)" fill="#333" opacity="0"/>
    <g id="headphones-2" data-name="headphones" transform="translate(1744.059 33)">
      <g id="그룹_834" data-name="그룹 834" transform="translate(3.984 16.045)">
        <g id="그룹_833" data-name="그룹 833">
          <path id="패스_46116" data-name="패스 46116" d="M93.988,210A2.992,2.992,0,0,0,91,212.988v8.1a2.988,2.988,0,0,0,5.977,0v-8.1A2.992,2.992,0,0,0,93.988,210Z" transform="translate(-91 -210)" fill="#333"/>
        </g>
      </g>
      <g id="그룹_836" data-name="그룹 836" transform="translate(0 18.088)">
        <g id="그룹_835" data-name="그룹 835">
          <path id="패스_46117" data-name="패스 46117" d="M32.992,243.2a4.942,4.942,0,0,1,.085-.839A2.982,2.982,0,0,0,31,245.2v4.117a2.982,2.982,0,0,0,2.077,2.831,4.942,4.942,0,0,1-.085-.839Z" transform="translate(-31 -242.366)" fill="#333"/>
        </g>
      </g>
      <g id="그룹_838" data-name="그룹 838" transform="translate(14.953 16.945)">
        <g id="그룹_837" data-name="그룹 837">
          <path id="패스_46118" data-name="패스 46118" d="M221.957,210a2.992,2.992,0,0,0-2.988,2.988v8.1a2.992,2.992,0,0,0,2.988,2.988,2.948,2.948,0,0,0,.856-.14,2.982,2.982,0,0,1-2.848,2.132h-3.172a2.988,2.988,0,1,0,0,1.992h3.172a4.986,4.986,0,0,0,4.98-4.98V212.988A2.992,2.992,0,0,0,221.957,210Z" transform="translate(-211 -210)" fill="#333"/>
        </g>
      </g>
      <g id="그룹_840" data-name="그룹 840" transform="translate(30.806 18.088)">
        <g id="그룹_839" data-name="그룹 839">
          <path id="패스_46119" data-name="패스 46119" d="M449.722,242.366a4.943,4.943,0,0,1,.085.839v8.1a4.943,4.943,0,0,1-.085.839,2.982,2.982,0,0,0,2.077-2.831V245.2A2.982,2.982,0,0,0,449.722,242.366Z" transform="translate(-449.722 -242.366)" fill="#333"/>
        </g>
      </g>
      <g id="그룹_842" data-name="그룹 842" transform="translate(0)">
        <g id="그룹_841" data-name="그룹 841">
          <path id="패스_46120" data-name="패스 46120" d="M47.441,0C38.375,0,31,6.7,31,14.941v.025a5.7,5.7,0,0,1,2.242-.925c.512-6.72,6.676-12.049,14.2-12.049s13.687,5.329,14.2,12.049a5.7,5.7,0,0,1,2.242.925v-.025C63.883,6.7,56.508,0,47.441,0Z" transform="translate(-31 0)" fill="#333"/>
        </g>
      </g>
    </g>
  </g>
</svg>
