<svg xmlns="http://www.w3.org/2000/svg" width="24" height="23.999" viewBox="0 0 24 23.999">
  <path id="icon_point" d="M-2440-1602a12.011,12.011,0,0,1,12-12,12.011,12.011,0,0,1,12,12,12.011,12.011,0,0,1-12,12A12.011,12.011,0,0,1-2440-1602Zm1.5,0a10.513,10.513,0,0,0,10.5,10.5,10.513,10.513,0,0,0,10.5-10.5,10.513,10.513,0,0,0-10.5-10.5A10.513,10.513,0,0,0-2438.5-1602Zm7.5,5v-4a1,1,0,0,1,1-1h3a2,2,0,0,0,2-2,2,2,0,0,0-2-2h-3a1,1,0,0,1-1-1,1,1,0,0,1,1-1h3a4,4,0,0,1,4,4,4,4,0,0,1-4,4h-2v3a1,1,0,0,1-1,1A1,1,0,0,1-2431-1597Z" transform="translate(2440 1614)" fill="#fff"/>
</svg>
