<svg xmlns="http://www.w3.org/2000/svg" xmlns:xlink="http://www.w3.org/1999/xlink" width="24" height="24" viewBox="0 0 24 24">
  <defs>
    <linearGradient id="linear-gradient" y1="0.5" x2="1" y2="0.5" gradientUnits="objectBoundingBox">
      <stop offset="0" stop-color="#fff"/>
      <stop offset="1" stop-color="#fff"/>
    </linearGradient>
  </defs>
  <path id="icon_cash" d="M12,0A12,12,0,1,0,24,12,12.011,12.011,0,0,0,12,0Zm0,22.5A10.5,10.5,0,1,1,22.5,12,10.513,10.513,0,0,1,12,22.5ZM9.577,10.092a1.315,1.315,0,0,0,1.4,1.158h2.048a2.791,2.791,0,0,1,2.9,2.658,2.791,2.791,0,0,1-2.9,2.658H12.75v.708a.75.75,0,0,1-1.5,0v-.708H8.827a.75.75,0,0,1,0-1.5h4.2a1.315,1.315,0,0,0,1.4-1.158,1.315,1.315,0,0,0-1.4-1.158H10.973a2.791,2.791,0,0,1-2.9-2.658,2.791,2.791,0,0,1,2.9-2.658h.272V6.722a.75.75,0,1,1,1.5,0v.712h2.423a.75.75,0,0,1,0,1.5h-4.2a1.313,1.313,0,0,0-1.4,1.158Z" fill="url(#linear-gradient)"/>
</svg>
