<svg xmlns="http://www.w3.org/2000/svg" width="47.407" height="40.012" viewBox="0 0 47.407 40.012">
  <g id="deal" transform="translate(0 -39.938)">
    <path id="패스_46098" data-name="패스 46098" d="M181.868,54.982l-8.426-14.358a1.389,1.389,0,0,0-1.892-.5L166.5,43.04l-4.549-1.673a5.134,5.134,0,0,0-.508-.157,5.076,5.076,0,0,0-3.8.526l-7.519,4.341a3.472,3.472,0,1,0,3.472,6.014l8.251-4.764a2.778,2.778,0,0,1,2.778,0s16.623,9.6,16.676,9.633l.248-.2A1.389,1.389,0,0,0,181.868,54.982Z" transform="translate(-134.652 0)" fill="#333"/>
    <path id="패스_46099" data-name="패스 46099" d="M45.1,79.5,28.589,69.961l-8.251,4.764a6.213,6.213,0,0,1-3.115.84,6.289,6.289,0,0,1-1.628-.216,6.25,6.25,0,0,1-2.224-10.967L9.966,62.417a1.389,1.389,0,0,0-1.918.546L.165,77.658a1.389,1.389,0,0,0,.53,1.859l.722.417,1.267-2.195a5.91,5.91,0,0,1,9.434-1.072,5.9,5.9,0,0,1,7.718,4.017c.045.167.081.336.111.5a5.9,5.9,0,0,1,4.376,4.224c.045.167.081.336.111.5a5.9,5.9,0,0,1,3.786,8.7l-1.73,3L30.2,99.758a3.125,3.125,0,0,0,3.125-5.413l2.406,1.389a3.125,3.125,0,0,0,3.125-5.413l1.6.926a3.125,3.125,0,1,0,3.125-5.413l-1.6-.926A3.125,3.125,0,0,0,45.1,79.5Z" transform="translate(0 -20.228)" fill="#333"/>
    <path id="패스_46100" data-name="패스 46100" d="M37.545,239.24a3.125,3.125,0,0,0-4.269,1.144l.926-1.6a3.125,3.125,0,1,0-5.413-3.125l.926-1.6a3.125,3.125,0,1,0-5.413-3.125l-.926,1.6a3.125,3.125,0,0,0-5.413-3.125l-3.356,5.814a3.125,3.125,0,1,0,5.413,3.125,3.125,3.125,0,1,0,5.413,3.125,3.125,3.125,0,0,0,5.413,3.125,3.125,3.125,0,1,0,5.413,3.125l2.431-4.21a3.124,3.124,0,0,0-1.144-4.268Z" transform="translate(-12.875 -170.505)" fill="#333"/>
  </g>
</svg>
