<svg xmlns="http://www.w3.org/2000/svg" width="189.653" height="23.089" viewBox="0 0 189.653 23.089">
  <path id="교차_33" data-name="교차 33" d="M167.938,19.827a10.879,10.879,0,0,1-3.389-8.177A11.121,11.121,0,0,1,167.963,3.3,11.907,11.907,0,0,1,176.594,0a12.1,12.1,0,0,1,8.688,3.3,10.958,10.958,0,0,1,3.469,8.282,10.783,10.783,0,0,1-3.5,8.242,12.451,12.451,0,0,1-8.833,3.263A11.74,11.74,0,0,1,167.938,19.827Zm2.434-14.349a8.231,8.231,0,0,0-2.488,6.171,8.085,8.085,0,0,0,2.5,6.059,9.264,9.264,0,0,0,12.533-.049,8.241,8.241,0,0,0,2.519-6.139A8.049,8.049,0,0,0,182.912,5.5a8.554,8.554,0,0,0-6.19-2.442A8.732,8.732,0,0,0,170.372,5.478ZM143.658,19.827a10.8,10.8,0,0,1-3.344-8.049,11.2,11.2,0,0,1,3.464-8.4A11.993,11.993,0,0,1,152.464.032a15.411,15.411,0,0,1,3.61.411,29.51,29.51,0,0,1,4.318,1.507V5.236A15.841,15.841,0,0,0,152.4,2.9a8.482,8.482,0,0,0-6.22,2.514,8.363,8.363,0,0,0-2.53,6.171,8.313,8.313,0,0,0,2.53,6.268,9,9,0,0,0,6.51,2.433,15.189,15.189,0,0,0,4.624-.886l.306-.1V14.614h-4.334V11.746h7.557v9.539a20.586,20.586,0,0,1-8.25,1.8A12.243,12.243,0,0,1,143.658,19.827Zm-27.314,0a10.879,10.879,0,0,1-3.39-8.177A11.122,11.122,0,0,1,116.368,3.3,11.9,11.9,0,0,1,125,0a12.1,12.1,0,0,1,8.688,3.3,10.955,10.955,0,0,1,3.47,8.282,10.781,10.781,0,0,1-3.5,8.242,12.449,12.449,0,0,1-8.832,3.263A11.738,11.738,0,0,1,116.344,19.827Zm2.433-14.349a8.234,8.234,0,0,0-2.487,6.171,8.088,8.088,0,0,0,2.495,6.059,9.264,9.264,0,0,0,12.532-.049,8.242,8.242,0,0,0,2.52-6.139,8.05,8.05,0,0,0-2.52-6.018,8.552,8.552,0,0,0-6.189-2.442A8.736,8.736,0,0,0,118.777,5.478ZM2.441,19.827A10.8,10.8,0,0,1-.9,11.778a11.2,11.2,0,0,1,3.465-8.4A11.992,11.992,0,0,1,11.247.032a15.4,15.4,0,0,1,3.609.411,29.474,29.474,0,0,1,4.318,1.507V5.236A15.841,15.841,0,0,0,11.182,2.9a8.483,8.483,0,0,0-6.22,2.514,8.363,8.363,0,0,0-2.53,6.171,8.313,8.313,0,0,0,2.53,6.268,9,9,0,0,0,6.51,2.433A15.194,15.194,0,0,0,16.1,19.4l.306-.1V14.614H12.069V11.746h7.557v9.539a20.59,20.59,0,0,1-8.25,1.8A12.244,12.244,0,0,1,2.441,19.827Zm95.334,3.005V.322H101V19.9h10.135v2.932Zm-33.757,0V5.317l-6.92,8.7h-.6l-7-8.7V22.832H46.277V.322h3.051l7.48,9.245L64.244.322h3.013v22.51Zm-23.44,0-3-6.671h-9.6l-2.812,6.671H21.849L31.518.193h2.265L43.877,22.832ZM29.254,13.293h7L32.621,5.14ZM72.107,22.8V.322H84.868V3.19H75.329v6.864h9.217v2.884H75.329v6.993h9.846V22.8Z" transform="translate(0.902)" fill="#fff"/>
</svg>
